  <svg xmlns="http://www.w3.org/2000/svg" xlink="http://www.w3.org/1999/xlink" width="1200" height="500"  viewBox="0 0 1099 516">
                <defs>
                    <clipPath id="clip-path">
                        <rect id="Rectangle_184" data-name="Rectangle 184" width="1099" height="516" transform="translate(646 2171.012)" fill="#fff" stroke="#707070" stroke-width="1" />
                    </clipPath>
                </defs>
                <g id="Mask_Group_9" data-name="Mask Group 9" transform="translate(-646 -2171.012)" clip-path="url(#clip-path)">
                    <g id="Group_114" data-name="Group 114" transform="translate(497.562 2192.275)">
                        <path id="Path_599" data-name="Path 599" d="M-777.12,583s76.781,62.431,146.25,46.461,26.813-87.116,140.156-104.539c0,0,52.406-9.44,82.877,31.94s56.061,92.928,117,80.584,59.718,34.847,114.563,43.56,107.249-7.261,148.686-84.215,76.12-83.409,147.47-72.8c66.5,9.892,78.022-13.031,88.963-35.952,9.656-20.235,18.859-40.468,65-38.135,96.1,4.85,101.562-26.62,109.688-35.817s73.937-25.649,109.688-3.869V789.178H-777.12Z" transform="translate(843.856 -399.442)" fill="#149287" />
                        <path id="Path_600" data-name="Path 600" d="M-803.2,543.469V749.645h148.52V630h-81.784V581.24c-38.107-14.494-66.736-37.771-66.736-37.771M467.142,630H448.559l-.345,119.641h18.928Z" transform="translate(803.196 -240.269)" fill="#59a49d" />
                        <path id="Path_601" data-name="Path 601" d="M379.814,456.274c-29.291,0-57.847,8.8-63.02,14.65-7.55,8.547-12.8,36.318-90.6,36.318q-8.895,0-19.087-.5-3.67-.186-7.033-.185c-40.088,0-48.826,19.159-57.97,38.32s-18.7,38.316-60.414,38.316a195.032,195.032,0,0,1-28.551-2.364C36.81,578.4,22.4,576.869,9.39,576.869c-43.827,0-71.767,17.42-103.719,76.761-9.569,17.766-19.724,32.285-30.356,44,35.077,14.585,54.687,25.11,55.436,25.517C47.613,703.6,169.268,700.219,239.443,700.219c10.552,0,19.937.078,27.97.185,19.911-.417,38.768-.568,55.846-.568,50.08,0,84.717,1.328,84.717,1.328l-.074,25.205h18.578V467.055c-12.991-7.915-29.946-10.781-46.666-10.781M-544.311,580.829a81.659,81.659,0,0,0-13.142.928c-31.7,4.873-51.2,13.947-64.36,24.843,8.678-.225,18.048-.358,28.042-.358q11.919,0,25.012.276c31.878.461,62.786,2.212,92.494,4.97-20.889-26.445-50.973-30.66-68.046-30.66M-777.12,677.605v48.764h81.784V685.746c-.742.189-1.5.375-2.273.551a105.91,105.91,0,0,1-23.793,2.61c-19.333,0-38.491-4.753-55.718-11.3" transform="translate(843.856 -336.634)" fill="#157b6f" />
                        <path id="Path_602" data-name="Path 602" d="M-93.864,650.784s-294.9-145.994-651.3-119.609V878.721H-76.183Z" transform="translate(893.685 -257.381)" fill="#d1d0d0" />
                        <path id="Path_603" data-name="Path 603" d="M106.842,573.3s-309.078-11.859-415.907,35.283S-540.731,764.339-576.415,828.8L-584,937.136H105.79Z" transform="translate(1144.99 -208.769)" fill="#d1d0d0" />
                        <path id="Path_604" data-name="Path 604" d="M-480.535,853.225S-352.51,563.384,40.292,573.1c0,0-527.19-21.948-651.3,145.558Z" transform="translate(1102.863 -208.569)" fill="#927666" />
                        <path id="Path_605" data-name="Path 605" d="M-35.165,572.6s-472.818.819-457.388,256.351H-36.217Z" transform="translate(1286.997 -208.072)" fill="#c4c4c4" />
                        <path id="Path_606" data-name="Path 606" d="M-671.641,527.682c-46.566,1.213-73.523,5.061-73.523,5.061q37.2-3.6,73.073-4.682l.45-.379" transform="translate(893.684 -257.716)" fill="#62a8a7" />
                        <path id="Path_607" data-name="Path 607" d="M-688.121,527.512c-9.991,0-19.361.133-28.04.358-.153.124-.307.25-.451.379q18.55-.594,36.69-.585c5.641,0,11.23.042,16.812.12q-13.083-.284-25.012-.271" transform="translate(938.206 -257.904)" fill="#629e9a" />
                        <path id="Path_608" data-name="Path 608" d="M-635.4,527.584q-18.15,0-36.692.585-35.844,1.14-73.07,4.682v453.9c175.651-317.859,497.74-343.336,596.515-343.336,18.03,0,28.631.85,29.531.924l.036,0c-196.135-92.371-382.012-114.073-499.506-116.626-5.582-.082-11.174-.124-16.814-.124" transform="translate(893.685 -257.824)" fill="#c4c4c4" />
                        <path id="Path_609" data-name="Path 609" d="M-500.508,583.041l-.036.008a.335.335,0,0,1,.061,0" transform="translate(1275.113 -196.535)" fill="#aa9e95" />
                        <path id="Path_610" data-name="Path 610" d="M-382.179,571.635c-.013,0-3.076.038-8.74.246a1.32,1.32,0,0,0-1.384,1.25,1.374,1.374,0,0,0,1.518,1.139c2.815-.112,4.98-.168,6.439-.2.732-.017,1.285-.029,1.656-.034s.553-.008.553-.008a1.336,1.336,0,0,0,1.431-1.213,1.352,1.352,0,0,0-1.471-1.177" transform="translate(1443.887 -209.141)" fill="#fff" />
                        <path id="Path_611" data-name="Path 611" d="M-62.674,572.167c-5.175.318-11.038.716-17.51,1.229A1.286,1.286,0,0,0-81.49,574.7a1.4,1.4,0,0,0,1.584,1.072c6.452-.51,12.29-.907,17.444-1.225a1.292,1.292,0,0,0,1.341-1.274A1.394,1.394,0,0,0-62.674,572.167Zm-34.967,2.768c-5.51.53-11.325,1.13-17.408,1.812a1.256,1.256,0,0,0-1.241,1.345,1.424,1.424,0,0,0,1.633,1.019c6.065-.678,11.862-1.278,17.354-1.808a1.272,1.272,0,0,0,1.272-1.324,1.414,1.414,0,0,0-1.61-1.044m-34.762,3.9q-8.392,1.074-17.3,2.358a1.236,1.236,0,0,0-1.18,1.381,1.455,1.455,0,0,0,1.681.97q8.868-1.279,17.244-2.347a1.251,1.251,0,0,0,1.211-1.366,1.442,1.442,0,0,0-1.656-1m-34.54,4.985q-8.419,1.348-17.173,2.895a1.215,1.215,0,0,0-1.113,1.417,1.473,1.473,0,0,0,1.722.914q8.718-1.535,17.119-2.882a1.23,1.23,0,0,0,1.147-1.4,1.461,1.461,0,0,0-1.7-.941m-34.271,6.061q-8.4,1.626-17.019,3.444a1.2,1.2,0,0,0-1.044,1.457,1.5,1.5,0,0,0,1.766.859q8.584-1.813,16.96-3.434a1.207,1.207,0,0,0,1.08-1.44,1.484,1.484,0,0,0-1.743-.886m-33.949,7.179q-8.342,1.91-16.827,4.017a1.174,1.174,0,0,0-.97,1.488,1.522,1.522,0,0,0,1.809.8q8.449-2.1,16.768-4.006a1.185,1.185,0,0,0,1.008-1.471,1.508,1.508,0,0,0-1.789-.825m-33.547,8.339q-8.257,2.213-16.6,4.625a1.154,1.154,0,0,0-.888,1.522,1.545,1.545,0,0,0,1.853.726q8.3-2.4,16.533-4.6a1.165,1.165,0,0,0,.929-1.505,1.538,1.538,0,0,0-1.83-.764m-33.058,9.568q-8.142,2.533-16.31,5.267a1.135,1.135,0,0,0-.8,1.558,1.572,1.572,0,0,0,1.889.652q8.135-2.719,16.244-5.246a1.141,1.141,0,0,0,.844-1.537,1.558,1.558,0,0,0-1.871-.695m-32.457,10.871q-7.985,2.874-15.957,5.949a1.113,1.113,0,0,0-.7,1.587,1.588,1.588,0,0,0,1.93.57q7.935-3.06,15.89-5.92a1.12,1.12,0,0,0,.747-1.571,1.587,1.587,0,0,0-1.912-.617M-365.943,638.1q-7.793,3.23-15.53,6.673a1.1,1.1,0,0,0-.586,1.619,1.622,1.622,0,0,0,1.966.482q7.7-3.429,15.458-6.644a1.1,1.1,0,0,0,.642-1.6,1.609,1.609,0,0,0-1.95-.531m-30.814,13.724q-7.551,3.616-15.01,7.44a1.077,1.077,0,0,0-.463,1.644,1.649,1.649,0,0,0,2,.383q7.413-3.815,14.931-7.4a1.088,1.088,0,0,0,.525-1.634,1.635,1.635,0,0,0-1.983-.431m-29.721,15.275q-7.252,4.01-14.378,8.24A1.062,1.062,0,0,0-441.18,677a1.658,1.658,0,0,0,2.024.267q7.083-4.206,14.3-8.189a1.071,1.071,0,0,0,.394-1.657,1.65,1.65,0,0,0-2.014-.326m-28.4,16.892q-6.895,4.415-13.623,9.061a1.054,1.054,0,0,0-.177,1.682,1.673,1.673,0,0,0,2.042.15q6.684-4.62,13.541-9.01a1.062,1.062,0,0,0,.253-1.678,1.669,1.669,0,0,0-2.037-.2m-26.819,18.547q-6.468,4.838-12.735,9.9a1.054,1.054,0,0,0-.018,1.691,1.688,1.688,0,0,0,2.055.017q6.219-5.046,12.648-9.84a1.051,1.051,0,0,0,.1-1.686,1.674,1.674,0,0,0-2.047-.082m-24.971,20.222q-5.966,5.242-11.7,10.726a1.052,1.052,0,0,0,.153,1.682,1.676,1.676,0,0,0,2.045-.126q5.7-5.447,11.624-10.65a1.054,1.054,0,0,0-.069-1.691,1.68,1.68,0,0,0-2.05.059M-529.5,744.608q-5.4,5.63-10.542,11.511a1.063,1.063,0,0,0,.333,1.665,1.658,1.658,0,0,0,2.025-.272q5.106-5.839,10.462-11.429a1.055,1.055,0,0,0-.24-1.674,1.663,1.663,0,0,0-2.037.2M-549.959,768q-4.768,5.987-9.262,12.227a1.085,1.085,0,0,0,.507,1.638,1.637,1.637,0,0,0,1.988-.419q4.461-6.192,9.2-12.143a1.069,1.069,0,0,0-.42-1.648,1.644,1.644,0,0,0-2.009.345m-17.856,24.784q-4.092,6.309-7.9,12.858a1.11,1.11,0,0,0,.683,1.591,1.608,1.608,0,0,0,1.935-.56q3.781-6.5,7.847-12.764a1.1,1.1,0,0,0-.6-1.615,1.619,1.619,0,0,0-1.963.488m-15.11,25.99q-3.4,6.575-6.5,13.376a1.145,1.145,0,0,0,.849,1.537,1.562,1.562,0,0,0,1.868-.7q3.083-6.761,6.457-13.281a1.129,1.129,0,0,0-.768-1.566,1.586,1.586,0,0,0-1.9.634m-12.3,26.969q-2.7,6.776-5.1,13.776a1.184,1.184,0,0,0,1,1.474,1.511,1.511,0,0,0,1.791-.823q2.384-6.957,5.067-13.688a1.165,1.165,0,0,0-.929-1.505,1.54,1.54,0,0,0-1.83.766m-9.515,27.717q-2.015,6.931-3.742,14.069a1.223,1.223,0,0,0,1.141,1.4,1.463,1.463,0,0,0,1.707-.937q1.712-7.1,3.716-13.98A1.206,1.206,0,0,0-603,872.579a1.487,1.487,0,0,0-1.748.884m-6.826,28.249q-1.363,7.039-2.446,14.273a1.268,1.268,0,0,0,1.261,1.333,1.423,1.423,0,0,0,1.618-1.042q1.075-7.19,2.434-14.185a1.251,1.251,0,0,0-1.2-1.368,1.445,1.445,0,0,0-1.664.989" transform="translate(1098.163 -208.555)" fill="#fff" />
                    </g>
                </g>
            </svg>